<?xml version="1.0" encoding="UTF-8" standalone="no"?>
<!DOCTYPE svg PUBLIC "-//W3C//DTD SVG 1.1//EN" "http://www.w3.org/Graphics/SVG/1.1/DTD/svg11.dtd">
<!-- Generated by Microsoft Visio, SVG Export PIC32CM_PL.svg Page-1 -->
<svg xmlns="http://www.w3.org/2000/svg" xmlns:xlink="http://www.w3.org/1999/xlink" 
		width="14.6927in" height="10.1943in" viewBox="0 0 1057.87 733.988"  
		style="fill:none;fill-rule:evenodd;font-size:12px;overflow:visible;stroke-linecap:square;stroke-miterlimit:3">
	

	<defs id="Markers">
		<g id="lend5">
			<path d="M 2 1 L 0 0 L 1.98117 -0.993387 C 1.67173 -0.364515 1.67301 0.372641 1.98465 1.00043 " style="stroke:none"/>
		</g>
		<marker id="mrkr5-58" style="fill:#000000;fill-opacity:1;stroke:#000000;stroke-opacity:1;stroke-width:0.28409090909091" refX="-6.16" orient="auto" markerUnits="strokeWidth" overflow="visible">
			<use xlink:href="#lend5" transform="scale(-3.52,-3.52) "/>
		</marker>
		<marker id="mrkr5-152" style="fill:#000000;fill-opacity:1;stroke:#000000;stroke-opacity:1;stroke-width:0.22935779816514" refX="7.15" orient="auto" markerUnits="strokeWidth" overflow="visible">
			<use xlink:href="#lend5" transform="scale(4.36) "/>
		</marker>
		<marker id="mrkr5-277" style="fill:#000000;fill-opacity:1;stroke:#000000;stroke-opacity:1;stroke-width:0.22935779816514" refX="-7.63" orient="auto" markerUnits="strokeWidth" overflow="visible">
			<use xlink:href="#lend5" transform="scale(-4.36,-4.36) "/>
		</marker>
		<marker id="mrkr5-308" style="fill:#000000;fill-opacity:1;stroke:#000000;stroke-opacity:1;stroke-width:0.28409090909091" refX="5.8" orient="auto" markerUnits="strokeWidth" overflow="visible">
			<use xlink:href="#lend5" transform="scale(3.52) "/>
		</marker>
	</defs>
	<defs id="Filters">
		<filter id="filter_2.6666667461395">
			<feGaussianBlur stdDeviation="2.6666667461395"/>
		</filter>
		<filter id="filter_2">
			<feGaussianBlur stdDeviation="2"/>
		</filter>
	</defs>
	<g>
		
		<g id="shape580-1" transform="translate(126.018,-584.618)">
			
			<g id="shadow580-2" transform="matrix(1,0,0,1,0,3)" style="visibility:visible">
				<rect x="0" y="595.727" width="205.516" height="138.26" style="fill:#000000;fill-opacity:0.4;filter:url(#filter_2.6666667461395);stroke:#000000;stroke-opacity:0.4"/>
			</g>
			<rect x="0" y="595.727" width="205.516" height="138.26" style="fill:#ffffff;stroke:#70ad47;stroke-width:1"/>
		</g>
		<g id="shape577-6" transform="translate(85.1448,-217.065)">
			
			<g id="shadow577-7" transform="matrix(1,0,0,1,0,3)" style="visibility:visible">
				<path d="M0 733.99 L248.89 733.99 L248.89 464.2 L0 464.2 L0 733.99 Z" style="fill:#000000;fill-opacity:0.4;filter:url(#filter_2.6666667461395);stroke:#000000;stroke-dasharray:1,2;stroke-opacity:0.4"/>
			</g>
			<path d="M0 733.99 L248.89 733.99 L248.89 464.2 L0 464.2 L0 733.99 Z" style="fill:#ffffff;stroke:#70ad47;stroke-dasharray:1,2;stroke-width:1"/>
		</g>
		<g id="shape512-11" transform="translate(756.985,-131.806)">
			
			<g id="shadow512-12" transform="matrix(1,0,0,1,0,3)" style="visibility:visible">
				<path d="M0 733.99 L138.33 733.99 L138.33 538.8 L0 538.8 L0 733.99 Z" style="fill:#000000;fill-opacity:0.4;filter:url(#filter_2.6666667461395);stroke:#000000;stroke-dasharray:1,2;stroke-opacity:0.4"/>
			</g>
			<path d="M0 733.99 L138.33 733.99 L138.33 538.8 L0 538.8 L0 733.99 Z" style="fill:#ffffff;stroke:#70ad47;stroke-dasharray:1,2;stroke-width:1"/>
		</g>
		<g id="shape249-16" transform="translate(756.985,-7.49999)">
			
			<g id="shadow249-17" transform="matrix(1,0,0,1,0,3)" style="visibility:visible">
				<path d="M0 733.99 L137.91 733.99 L137.91 624.13 L0 624.13 L0 733.99 Z" style="fill:#000000;fill-opacity:0.4;filter:url(#filter_2.6666667461395);stroke:#000000;stroke-dasharray:1,2;stroke-opacity:0.4"/>
			</g>
			<path d="M0 733.99 L137.91 733.99 L137.91 624.13 L0 624.13 L0 733.99 Z" style="fill:#ffffff;stroke:#70ad47;stroke-dasharray:1,2;stroke-width:1"/>
		</g>
		<g id="shape247-21" transform="translate(1557.74,683.896) rotate(90)">
			
			<path d="M0 733.99 L15.87 733.99" style="stroke:#000000;stroke-linecap:round;stroke-linejoin:round;stroke-width:0.75"/>
		</g>
		<g id="shape131-24" transform="translate(758.268,-626.558)">
			
			<g id="shadow131-25" transform="matrix(1,0,0,1,0,3)" style="visibility:visible">
				<path d="M0 733.99 L137.9 733.99 L137.9 628.06 L0 628.06 L0 733.99 Z" style="fill:#000000;fill-opacity:0.4;filter:url(#filter_2.6666667461395);stroke:#000000;stroke-dasharray:1,2;stroke-opacity:0.4"/>
			</g>
			<path d="M0 733.99 L137.9 733.99 L137.9 628.06 L0 628.06 L0 733.99 Z" style="fill:#ffffff;stroke:#70ad47;stroke-dasharray:1,2;stroke-width:1"/>
		</g>
		<g id="shape107-29" transform="translate(758.098,-389.993)">
			
			<g id="shadow107-30" transform="matrix(1,0,0,1,0,3)" style="visibility:visible">
				<path d="M0 733.99 L137.91 733.99 L137.91 539.17 L0 539.17 L0 733.99 Z" style="fill:#000000;fill-opacity:0.4;filter:url(#filter_2.6666667461395);stroke:#000000;stroke-dasharray:1,2;stroke-opacity:0.4"/>
			</g>
			<path d="M0 733.99 L137.91 733.99 L137.91 539.17 L0 539.17 L0 733.99 Z" style="fill:#ffffff;stroke:#70ad47;stroke-dasharray:1,2;stroke-width:1"/>
		</g>
		<g id="shape10-34" transform="translate(841.279,-442.475)">
			
			<path d="M9 733.99 L9 695.84" style="stroke:#000000;stroke-linecap:round;stroke-linejoin:round;stroke-width:1"/>
		</g>
		<g id="shape29-37" transform="translate(500.447,-53.6184)">
			
			<g id="shadow29-38" transform="matrix(1,0,0,1,0,3)" style="visibility:visible">
				<path d="M0 733.99 L133.37 733.99 L133.37 531.44 L0 531.44 L0 733.99 Z" style="fill:#000000;fill-opacity:0.4;filter:url(#filter_2.6666667461395);stroke:#000000;stroke-dasharray:1,2;stroke-opacity:0.4"/>
			</g>
			<path d="M0 733.99 L133.37 733.99 L133.37 531.44 L0 531.44 L0 733.99 Z" style="fill:#ffffff;stroke:#70ad47;stroke-dasharray:1,2;stroke-width:1"/>
		</g>
		<g id="shape33-42" transform="translate(577.786,-148.601)">
			
			<path d="M9 733.99 L9 762.51" style="stroke:#000000;stroke-linecap:round;stroke-linejoin:round;stroke-width:1"/>
		</g>
		<g id="shape45-45" transform="translate(498.305,-519.253)">
			
			<g id="shadow45-46" transform="matrix(1,0,0,1,0,3)" style="visibility:visible">
				<path d="M0 733.99 L134.08 733.99 L134.08 521.28 L0 521.28 L0 733.99 Z" style="fill:#000000;fill-opacity:0.4;filter:url(#filter_2.6666667461395);stroke:#000000;stroke-dasharray:1,2;stroke-opacity:0.4"/>
			</g>
			<path d="M0 733.99 L134.08 733.99 L134.08 521.28 L0 521.28 L0 733.99 Z" style="fill:#ffffff;stroke:#70ad47;stroke-dasharray:1,2;stroke-width:1"/>
		</g>
		<g id="shape70-50" transform="translate(616.097,-638.777) rotate(0.130233)">
			
			<path d="M0 733.99 L70.71 733.99" style="stroke:#000000;stroke-linecap:round;stroke-linejoin:round;stroke-width:1"/>
		</g>
		<g id="shape71-53" transform="translate(615.591,-167.129) rotate(-0.103973)">
			
			<path d="M0 733.99 L56.43 733.99" style="marker-end:url(#mrkr5-58);stroke:#000000;stroke-linecap:round;stroke-linejoin:round;stroke-width:1"/>
		</g>
		<g id="shape103-59" transform="translate(630.078,-154.113)">
			
			<desc>GCLKx</desc>
			<rect x="0" y="723.035" width="46.2989" height="10.9527" style="fill:none;stroke:none;stroke-width:0.25"/>
			<text x="13" y="730.91" style="fill:#000000;font-family:Calibri;font-size:0.666664em">GCLKx</text>		</g>
		<g id="shape104-62" transform="translate(512.34,-712.115)">
			
			<desc>GCLK Generator 0</desc>
			<rect x="0" y="723.035" width="102.708" height="10.9527" style="fill:none;stroke:none;stroke-width:0.25"/>
			<text x="18.21" y="731.21" style="fill:#41719c;font-family:Calibri;font-size:0.75em;font-weight:bold">GCLK Generator 0</text>		</g>
		<g id="shape106-65" transform="translate(505.143,-236.584)">
			
			<desc>GCLK Generator x (x=2-3)</desc>
			<rect x="0" y="717.179" width="117.476" height="16.8085" style="fill:none;stroke:none;stroke-width:0.25"/>
			<text x="11.74" y="728.28" style="fill:#41719c;font-family:Calibri;font-size:0.75em;font-weight:bold">GCLK Generator x (x=2-3)</text>		</g>
		<g id="shape112-68" transform="translate(793.032,-476.065)">
			
			<path d="M0 724.99 L50.92 724.99" style="stroke:#000000;stroke-linecap:round;stroke-linejoin:round;stroke-width:1"/>
		</g>
		<g id="shape114-71" transform="translate(771.732,944.648) rotate(180)">
			
			<path d="M0 733.99 L60.57 733.99" style="stroke:#000000;stroke-linecap:round;stroke-linejoin:round;stroke-width:1"/>
		</g>
		<g id="shape117-74" transform="translate(772.382,1016.27) rotate(180)">
			
			<path d="M0 733.99 L60.9 733.99" style="stroke:#000000;stroke-linecap:round;stroke-linejoin:round;stroke-width:1"/>
		</g>
		<g id="shape120-77" transform="translate(771.739,968.696) rotate(180)">
			
			<path d="M0 733.99 L60.57 733.99" style="stroke:#000000;stroke-linecap:round;stroke-linejoin:round;stroke-width:1"/>
		</g>
		<g id="shape121-80" transform="translate(771.739,991.196) rotate(180)">
			
			<path d="M0 733.99 L60.57 733.99" style="stroke:#000000;stroke-linecap:round;stroke-linejoin:round;stroke-width:1"/>
		</g>
		<g id="shape126-83" transform="translate(772.875,-570.425)">
			
			<desc>Peripheral Clock Selection</desc>
			<rect x="0" y="723.035" width="125.137" height="10.9527" style="fill:none;stroke:none;stroke-width:0.25"/>
			<text x="14.05" y="731.21" style="fill:#41719c;font-family:Calibri;font-size:0.75em;font-weight:bold">Peripheral Clock Selection</text>		</g>
		<g id="shape128-86" transform="translate(852.377,-476.065)">
			
			<path d="M0 725.09 L118.5 724.9" style="marker-end:url(#mrkr5-58);stroke:#000000;stroke-linecap:round;stroke-linejoin:round;stroke-width:1"/>
		</g>
		<g id="shape146-91" transform="translate(772.502,-718.63)">
			
			<desc>Main Clock</desc>
			<rect x="0" y="723.035" width="110.702" height="10.9527" style="fill:none;stroke:none;stroke-width:0.25"/>
			<text x="34.71" y="731.21" style="fill:#41719c;font-family:Calibri;font-size:0.75em;font-weight:bold">Main Clock</text>		</g>
		<g id="shape150-94" transform="translate(636.284,-638.054)">
			
			<desc>GCLK0</desc>
			<rect x="0" y="723.035" width="33.706" height="10.9527" style="fill:none;stroke:none;stroke-width:0.25"/>
			<text x="6.28" y="730.91" style="fill:#000000;font-family:Calibri;font-size:0.666664em;font-weight:bold">GCLK0</text>		</g>
		<g id="shape154-97" transform="translate(854.881,-688.816)">
			
			<path d="M0 733.99 L116.14 733.99" style="marker-end:url(#mrkr5-58);stroke:#000000;stroke-linecap:round;stroke-linejoin:round;stroke-width:1"/>
		</g>
		<g id="shape156-102" transform="translate(844.685,-476.698)">
			
			<path d="M0 717.25 L0 733.99 L11.7 726.13 L0 717.25 Z" style="fill:#d5e8d4;stroke:#82b366;stroke-width:1.5"/>
		</g>
		<g id="shape162-104" transform="translate(820.205,1411.6) rotate(180)">
			
			<path d="M0 733.99 L114.51 733.99" style="stroke:#000000;stroke-linecap:round;stroke-linejoin:round;stroke-width:0.75"/>
		</g>
		<g id="shape180-107" transform="translate(829.41,-45.7883)">
			
			<path d="M0 725.16 L147.63 724.81" style="stroke:#000000;stroke-linecap:round;stroke-linejoin:round;stroke-width:0.75"/>
		</g>
		<g id="shape181-110" transform="translate(818.883,-46.9592)">
			
			<path d="M0 717.71 L0 733.99 L11.38 726.34 L0 717.71 Z" style="fill:#d5e8d4;stroke:#82b366;stroke-width:1.5"/>
		</g>
		<g id="shape256-112" transform="translate(770.587,-104.414)">
			
			<desc>GCLK Input Output (IO)</desc>
			<rect x="0" y="723.035" width="110.702" height="10.9527" style="fill:none;stroke:none;stroke-width:0.25"/>
			<text x="12.23" y="731.21" style="fill:#41719c;font-family:Calibri;font-size:0.75em;font-weight:bold">GCLK Input Output (IO)</text>		</g>
		<g id="shape257-115" transform="translate(499.342,-312.368)">
			
			<g id="shadow257-116" transform="matrix(1,0,0,1,0,3)" style="visibility:visible">
				<path d="M0 733.99 L134.08 733.99 L134.08 545.69 L0 545.69 L0 733.99 Z" style="fill:#000000;fill-opacity:0.4;filter:url(#filter_2.6666667461395);stroke:#000000;stroke-dasharray:1,2;stroke-opacity:0.4"/>
			</g>
			<path d="M0 733.99 L134.08 733.99 L134.08 545.69 L0 545.69 L0 733.99 Z" style="fill:#ffffff;stroke:#70ad47;stroke-dasharray:1,2;stroke-width:1"/>
		</g>
		<g id="shape261-120" transform="translate(579.126,-394.777)">
			
			<path d="M9 733.99 L9 762.51" style="stroke:#000000;stroke-linecap:round;stroke-linejoin:round;stroke-width:1"/>
		</g>
		<g id="shape275-123" transform="translate(639.186,-413.207)">
			
			<desc>GCLK1</desc>
			<rect x="0" y="723.035" width="33.706" height="10.9527" style="fill:none;stroke:none;stroke-width:0.25"/>
			<text x="6.28" y="730.91" style="fill:#000000;font-family:Calibri;font-size:0.666664em;font-weight:bold">GCLK1</text>		</g>
		<g id="shape276-126" transform="translate(517.494,-477.779)">
			
			<desc>GCLK Generator 1</desc>
			<rect x="0" y="723.035" width="102.708" height="10.9527" style="fill:none;stroke:none;stroke-width:0.25"/>
			<text x="18.21" y="731.21" style="fill:#41719c;font-family:Calibri;font-size:0.75em;font-weight:bold">GCLK Generator 1</text>		</g>
		<g id="shape277-129" transform="translate(614.254,-408.946) rotate(-0.153448)">
			
			<path d="M0 733.99 L57.14 733.99" style="marker-end:url(#mrkr5-58);stroke:#000000;stroke-linecap:round;stroke-linejoin:round;stroke-width:1"/>
		</g>
		<g id="shape279-134" transform="translate(829.787,1371.78) rotate(180)">
			
			<path d="M0 717.71 L0 733.99 L11.38 726.34 L0 717.71 Z" style="fill:#d5e8d4;stroke:#82b366;stroke-width:1.5"/>
		</g>
		<g id="shape281-136" transform="translate(829.858,-79.2019)">
			
			<path d="M0 724.99 L28.9 724.99" style="stroke:#000000;stroke-linecap:round;stroke-linejoin:round;stroke-width:0.75"/>
		</g>
		<g id="shape282-139" transform="translate(1592.85,645.836) rotate(90)">
			
			<path d="M0 733.99 L33.48 733.99" style="stroke:#000000;stroke-linecap:round;stroke-linejoin:round;stroke-width:0.75"/>
		</g>
		<g id="shape283-142" transform="translate(856.691,-52.2104)">
			
			<g id="shadow283-143" transform="matrix(1,0,0,1,0.345598,1.97279)" style="visibility:visible">
				<ellipse cx="2.44865" cy="731.539" rx="2.44865" ry="2.44865" style="fill:#5b9bd5;fill-opacity:0.22;filter:url(#filter_2);stroke:#5b9bd5;stroke-opacity:0.22"/>
			</g>
			<ellipse cx="2.44865" cy="731.539" rx="2.44865" ry="2.44865" style="fill:#000000;stroke:#c7c8c8;stroke-width:0.25"/>
		</g>
		<g id="shape284-147" transform="translate(704.206,-79.4675)">
			
			<path d="M5.36 724.99 L5.72 724.99 L114.36 724.99" style="marker-start:url(#mrkr5-152);stroke:#000000;stroke-linecap:round;stroke-linejoin:round;stroke-width:0.75"/>
		</g>
		<g id="shape285-153" transform="translate(698.718,-92.2739)">
			
			<desc>GCLK_IN[x]</desc>
			<rect x="0" y="723.035" width="51.8828" height="10.9527" style="fill:none;stroke:none;stroke-width:0.25"/>
			<text x="7.27" y="730.91" style="fill:#000000;font-family:Calibri;font-size:0.666664em;font-weight:bold">GCLK_IN[x]</text>		</g>
		<g id="shape286-156" transform="translate(696.668,-59.1439)">
			
			<desc>GCLKx</desc>
			<rect x="0" y="723.035" width="38.4592" height="10.9527" style="fill:none;stroke:none;stroke-width:0.25"/>
			<text x="8.85" y="730.91" style="fill:#000000;font-family:Calibri;font-size:0.666664em;font-weight:bold">GCLKx</text>		</g>
		<g id="shape331-159" transform="translate(264.393,-662.251)">
			
			<path d="M0 725 L120.39 724.98" style="marker-end:url(#mrkr5-58);stroke:#000000;stroke-linecap:round;stroke-linejoin:round;stroke-width:1"/>
		</g>
		<g id="shape351-164" transform="translate(330.68,-674.71)">
			
			<desc>OSCHF</desc>
			<rect x="0" y="723.035" width="58.9742" height="10.9527" style="fill:none;stroke:none;stroke-width:0.25"/>
			<text x="18.41" y="730.91" style="fill:#000000;font-family:Calibri;font-size:0.666664em;font-weight:bold">OSCHF</text>		</g>
		<g id="shape390-167" transform="translate(224.647,-243.313)">
			
			<path d="M0 724.99 L153.78 724.99" style="marker-end:url(#mrkr5-58);stroke:#000000;stroke-linecap:round;stroke-linejoin:round;stroke-width:1"/>
		</g>
		<g id="shape391-172" transform="translate(68.3383,-291.286)">
			
			<path d="M0 724.99 L50.86 724.99" style="stroke:#000000;stroke-linecap:round;stroke-linejoin:round;stroke-width:1"/>
		</g>
		<g id="shape392-175" transform="translate(65.6647,-245.202)">
			
			<path d="M0 724.99 L52.1 724.99" style="stroke:#000000;stroke-linecap:round;stroke-linejoin:round;stroke-width:1"/>
		</g>
		<g id="shape393-178" transform="translate(56.2703,-248.49)">
			
			<rect x="0" y="721.873" width="12.1149" height="12.1149" style="fill:#ffffff;stroke:#000000;stroke-width:0.25"/>
		</g>
		<g id="shape394-180" transform="translate(-456.09,-29.7967) rotate(-45)">
			
			<path d="M0 726.65 L7.02 726.65 L7.02 733.99 L7.02 726.65 L14.04 726.65 L7.02 726.65 L7.02 719.32 L7.02 726.65 L0 726.65
						 Z" style="fill:#000000;stroke:#000000;stroke-width:0.25"/>
		</g>
		<g id="shape395-182" transform="translate(57.0403,-294.573)">
			
			<rect x="0" y="721.873" width="12.1149" height="12.1149" style="fill:#ffffff;stroke:#000000;stroke-width:0.25"/>
		</g>
		<g id="shape396-184" transform="translate(-455.687,-75.4988) rotate(-45)">
			
			<path d="M0 726.65 L7.02 726.65 L7.02 733.99 L7.02 726.65 L14.04 726.65 L7.02 726.65 L7.02 719.32 L7.02 726.65 L0 726.65
						 Z" style="fill:#000000;stroke:#000000;stroke-width:0.25"/>
		</g>
		<g id="shape398-186" transform="translate(269.161,-329.141)">
			
			<path d="M0 742.36 L109.9 743.55" style="marker-end:url(#mrkr5-58);stroke:#000000;stroke-linecap:round;stroke-linejoin:round;stroke-width:1"/>
		</g>
		<g id="shape400-191" transform="translate(98.7652,-301.663)">
			
			<path d="M0 733.99 L0 693.07 L149.66 693.07" style="stroke:#000000;stroke-linecap:round;stroke-linejoin:round;stroke-width:1"/>
		</g>
		<g id="shape401-194" transform="translate(95.9513,-297.523)">
			
			<path d="M0 730.96 A3.02874 3.02874 0 0 1 6.06 730.96 A3.02874 3.02874 0 1 1 0 730.96 Z" style="fill:#000000;stroke:none;stroke-width:0.25"/>
		</g>
		<g id="shape402-196" transform="translate(13.0937,-287.682)">
			
			<desc>XIN32</desc>
			<rect x="0" y="710.268" width="48.906" height="23.7193" style="fill:none;stroke:none;stroke-width:0.5"/>
			<text x="9.87" y="725.73" style="fill:#000000;font-family:Calibri;font-size:1.00001em">XIN32</text>		</g>
		<g id="shape403-199" transform="translate(0.5,-241.776)">
			
			<desc>XOUT32</desc>
			<rect x="0" y="710.268" width="56.0738" height="23.7193" style="fill:none;stroke:none;stroke-width:0.5"/>
			<text x="8.09" y="725.73" style="fill:#000000;font-family:Calibri;font-size:1.00001em">XOUT32</text>		</g>
		<g id="shape405-202" transform="translate(336.756,-322.833)">
			
			<desc>XOSC32K</desc>
			<rect x="0" y="723.035" width="43.3861" height="10.9527" style="fill:none;stroke:none;stroke-width:0.25"/>
			<text x="6.53" y="730.91" style="fill:#000000;font-family:Calibri;font-size:0.666664em;font-weight:bold">XOSC32K</text>		</g>
		<g id="shape412-205" transform="translate(977.446,-347.705)">
			
			<desc>EIC</desc>
			<g id="shadow412-206" transform="matrix(1,0,0,1,0.345598,1.97279)" style="visibility:visible">
				<rect x="0" y="709.427" width="74.3702" height="24.5605" style="fill:#5b9bd5;fill-opacity:0.22;filter:url(#filter_2);stroke:#5b9bd5;stroke-opacity:0.22"/>
			</g>
			<rect x="0" y="709.427" width="74.3702" height="24.5605" style="fill:#f8cecc;stroke:#c7c8c8;stroke-width:0.25"/>
			<text x="29.54" y="725.31" style="fill:#000000;font-family:Calibri;font-size:1.00001em">EIC</text>		</g>
		<g id="shape439-211" transform="translate(227.228,-462.165)">
			
			<path d="M0 742.82 L150.55 743.14" style="marker-end:url(#mrkr5-58);stroke:#000000;stroke-linecap:round;stroke-linejoin:round;stroke-width:1"/>
		</g>
		<g id="shape440-216" transform="translate(335.297,-455.305)">
			
			<desc>OSC32K</desc>
			<rect x="0" y="723.035" width="40.9907" height="10.9527" style="fill:none;stroke:none;stroke-width:0.25"/>
			<text x="7.54" y="730.91" style="fill:#000000;font-family:Calibri;font-size:0.666664em;font-weight:bold">OSC32K</text>		</g>
		<g id="shape441-219" transform="translate(226.243,-414.237)">
			
			<path d="M0 742.69 L153.2 743.26" style="marker-end:url(#mrkr5-58);stroke:#000000;stroke-linecap:round;stroke-linejoin:round;stroke-width:1"/>
		</g>
		<g id="shape442-224" transform="translate(333.108,-408.018)">
			
			<desc>OSC1K</desc>
			<rect x="0" y="723.035" width="40.9907" height="10.9527" style="fill:none;stroke:none;stroke-width:0.25"/>
			<text x="9.57" y="730.91" style="fill:#000000;font-family:Calibri;font-size:0.666664em;font-weight:bold">OSC1K</text>		</g>
		<g id="shape455-227" transform="translate(224.221,-294.464)">
			
			<path d="M0 724.99 L23.61 724.99" style="stroke:#000000;stroke-linecap:round;stroke-linejoin:round;stroke-width:1"/>
		</g>
		<g id="shape468-230" transform="translate(977.446,-318.208)">
			
			<desc>WDT</desc>
			<g id="shadow468-231" transform="matrix(1,0,0,1,0.345598,1.97279)" style="visibility:visible">
				<rect x="0" y="709.427" width="74.3702" height="24.5605" style="fill:#5b9bd5;fill-opacity:0.22;filter:url(#filter_2);stroke:#5b9bd5;stroke-opacity:0.22"/>
			</g>
			<rect x="0" y="709.427" width="74.3702" height="24.5605" style="fill:#f8cecc;stroke:#c7c8c8;stroke-width:0.25"/>
			<text x="25.23" y="725.31" style="fill:#000000;font-family:Calibri;font-size:1.00001em">WDT</text>		</g>
		<g id="shape473-236" transform="translate(977.644,-472.785)">
			
			<desc>Peripherals</desc>
			<g id="shadow473-237" transform="matrix(1,0,0,1,0.345598,1.97279)" style="visibility:visible">
				<rect x="0" y="709.427" width="73.1724" height="24.5605" style="fill:#5b9bd5;fill-opacity:0.22;filter:url(#filter_2);stroke:#5b9bd5;stroke-opacity:0.22"/>
			</g>
			<rect x="0" y="709.427" width="73.1724" height="24.5605" style="fill:#f8cecc;stroke:#c7c8c8;stroke-width:0.25"/>
			<text x="9.05" y="725.31" style="fill:#000000;font-family:Calibri;font-size:1.00001em">Peripherals</text>		</g>
		<g id="shape474-242" transform="translate(334.324,-254.304)">
			
			<desc>XOSC1K</desc>
			<rect x="0" y="723.035" width="43.3861" height="10.9527" style="fill:none;stroke:none;stroke-width:0.25"/>
			<text x="8.56" y="730.91" style="fill:#000000;font-family:Calibri;font-size:0.666664em;font-weight:bold">XOSC1K</text>		</g>
		<g id="shape475-245" transform="translate(977.528,-223.52)">
			
			<desc>RTC</desc>
			<g id="shadow475-246" transform="matrix(1,0,0,1,0.345598,1.97279)" style="visibility:visible">
				<rect x="0" y="709.427" width="73.7511" height="24.5605" style="fill:#5b9bd5;fill-opacity:0.22;filter:url(#filter_2);stroke:#5b9bd5;stroke-opacity:0.22"/>
			</g>
			<rect x="0" y="709.427" width="73.7511" height="24.5605" style="fill:#f8cecc;stroke:#c7c8c8;stroke-width:0.25"/>
			<text x="27.49" y="725.31" style="fill:#000000;font-family:Calibri;font-size:1.00001em">RTC</text>		</g>
		<g id="shape494-251" transform="translate(712.143,-278.842)">
			
			<path d="M0 725.21 L122.62 724.76" style="stroke:#000000;stroke-linecap:round;stroke-linejoin:round;stroke-width:1"/>
		</g>
		<g id="shape495-254" transform="translate(713.268,-265.621)">
			
			<path d="M0 742.93 L122.84 743.05" style="stroke:#000000;stroke-linecap:round;stroke-linejoin:round;stroke-width:1"/>
		</g>
		<g id="shape496-257" transform="translate(712.143,-233.618)">
			
			<path d="M0 742.99 L127.12 742.99" style="stroke:#000000;stroke-linecap:round;stroke-linejoin:round;stroke-width:1"/>
		</g>
		<g id="shape506-260" transform="translate(865.143,-244.765)">
			
			<path d="M0 742.88 L105.74 743.08" style="marker-end:url(#mrkr5-58);stroke:#000000;stroke-linecap:round;stroke-linejoin:round;stroke-width:1"/>
		</g>
		<g id="shape509-265" transform="translate(801.242,-285.443)">
			
			<path d="M0 731.4 A2.59064 2.59064 0 1 1 5.18 731.4 A2.59064 2.59064 0 0 1 0 731.4 Z" style="fill:#000000;stroke:none;stroke-width:0.25"/>
		</g>
		<g id="shape510-267" transform="translate(775.082,-253.914)">
			
			<path d="M0 731.4 A2.59064 2.59064 0 1 1 5.18 731.4 A2.59064 2.59064 0 0 1 0 731.4 Z" style="fill:#000000;stroke:none;stroke-width:0.25"/>
		</g>
		<g id="shape518-269" transform="translate(1418.06,31.4056) rotate(88.9254)">
			
			<path d="M0 733.99 L50.21 733.99" style="stroke:#000000;stroke-linecap:round;stroke-linejoin:round;stroke-width:1"/>
		</g>
		<g id="shape526-272" transform="translate(803.83,-288.743)">
			
			<path d="M0 733.99 L0 691.92 L167.49 691.92" style="marker-end:url(#mrkr5-277);stroke:#000000;stroke-width:0.75"/>
		</g>
		<g id="shape528-278" transform="translate(776.83,-257.243)">
			
			<path d="M0 733.99 L0 630.45 L194.49 630.45" style="marker-end:url(#mrkr5-277);stroke:#000000;stroke-width:0.75"/>
		</g>
		<g id="shape531-283" transform="translate(705.707,-523.755)">
			
			<desc>GCLK0</desc>
			<rect x="0" y="723.035" width="37.4336" height="10.9527" style="fill:none;stroke:none;stroke-width:0.25"/>
			<text x="8.14" y="730.91" style="fill:#000000;font-family:Calibri;font-size:0.666664em;font-weight:bold">GCLK0</text>		</g>
		<g id="shape532-286" transform="translate(705.714,-500.696)">
			
			<desc>GCLK1</desc>
			<rect x="0" y="723.035" width="37.4336" height="10.9527" style="fill:none;stroke:none;stroke-width:0.25"/>
			<text x="8.14" y="730.91" style="fill:#000000;font-family:Calibri;font-size:0.666664em;font-weight:bold">GCLK1</text>		</g>
		<g id="shape533-289" transform="translate(705.714,-477.895)">
			
			<desc>GCLK2</desc>
			<rect x="0" y="723.035" width="37.4336" height="10.9527" style="fill:none;stroke:none;stroke-width:0.25"/>
			<text x="8.14" y="730.91" style="fill:#000000;font-family:Calibri;font-size:0.666664em;font-weight:bold">GCLK2</text>		</g>
		<g id="shape534-292" transform="translate(706.357,-452.845)">
			
			<desc>GCLK3</desc>
			<rect x="0" y="723.035" width="37.4336" height="10.9527" style="fill:none;stroke:none;stroke-width:0.25"/>
			<text x="8.14" y="730.91" style="fill:#000000;font-family:Calibri;font-size:0.666664em;font-weight:bold">GCLK3</text>		</g>
		<g id="shape540-295" transform="translate(778.293,-140.243)">
			
			<desc>RTC Clock Selection</desc>
			<rect x="0" y="723.035" width="110.702" height="10.9527" style="fill:none;stroke:none;stroke-width:0.25"/>
			<text x="19.08" y="731.21" style="fill:#41719c;font-family:Calibri;font-size:0.75em;font-weight:bold">RTC Clock Selection</text>		</g>
		<g id="shape566-298" transform="translate(272.251,-340.484)">
			
			<g id="shadow566-299" transform="matrix(1,0,0,1,0.345598,1.97279)" style="visibility:visible">
				<path d="M0 733.99 L48.97 733.99 L48.97 700.06 L0 700.06 L0 733.99 Z" style="fill:#5b9bd5;fill-opacity:0.22;filter:url(#filter_2);stroke:#5b9bd5;stroke-dasharray:1,2;stroke-opacity:0.22"/>
			</g>
			<path d="M0 733.99 L48.97 733.99 L48.97 700.06 L0 700.06 L0 733.99 Z" style="fill:#ffe6cc;stroke:#d79b00;stroke-dasharray:1,2;stroke-width:1"/>
		</g>
		<g id="shape567-303" transform="translate(-445.101,413.633) rotate(-90)">
			
			<path d="M5.8 733.99 L6.16 733.99 L34.49 733.99" style="marker-start:url(#mrkr5-308);stroke:#000000;stroke-linecap:round;stroke-linejoin:round;stroke-width:1"/>
		</g>
		<g id="shape573-309" transform="translate(288.045,-346.398)">
			
			<desc>CFD</desc>
			<rect x="0" y="723.035" width="29.5942" height="10.9527" style="fill:none;stroke:none;stroke-width:0.25"/>
			<text x="8.32" y="730.91" style="fill:#000000;font-family:Calibri;font-size:0.666664em;font-weight:bold">CFD</text>		</g>
		<g id="shape576-312" transform="translate(712.143,-184.118)">
			
			<path d="M0 724.99 L124.88 724.99" style="stroke:#000000;stroke-linecap:round;stroke-linejoin:round;stroke-width:1"/>
		</g>
		<g id="shape579-315" transform="translate(126.29,-471.658)">
			
			<desc>32 KHz Oscillators Controller</desc>
			<rect x="0" y="723.035" width="150.791" height="10.9527" style="fill:none;stroke:none;stroke-width:0.25"/>
			<text x="22.19" y="731.21" style="fill:#41719c;font-family:Calibri;font-size:0.75em;font-weight:bold">32 KHz Oscillators Controller</text>		</g>
		<g id="shape586-318" transform="translate(153.051,-705.9)">
			
			<desc>OSCHF Oscillator Controller</desc>
			<rect x="0" y="723.035" width="150.791" height="10.9527" style="fill:none;stroke:none;stroke-width:0.25"/>
			<text x="24.2" y="731.21" style="fill:#41719c;font-family:Calibri;font-size:0.75em;font-weight:bold">OSCHF Oscillator Controller</text>		</g>
		<g id="shape591-321" transform="translate(977.464,-676.536)">
			
			<desc>CPU</desc>
			<g id="shadow591-322" transform="matrix(1,0,0,1,0.345598,1.97279)" style="visibility:visible">
				<rect x="0" y="709.427" width="76.9359" height="24.5605" style="fill:#5b9bd5;fill-opacity:0.22;filter:url(#filter_2);stroke:#5b9bd5;stroke-opacity:0.22"/>
			</g>
			<rect x="0" y="709.427" width="76.9359" height="24.5605" style="fill:#f8cecc;stroke:#c7c8c8;stroke-width:0.25"/>
			<text x="28.32" y="725.31" style="fill:#000000;font-family:Calibri;font-size:1.00001em">CPU</text>		</g>
		<g id="shape596-327" transform="translate(286.437,-351.615)">
			
			<g id="shadow596-328" transform="matrix(1,0,0,1,0.345598,1.97279)" style="visibility:visible">
				<ellipse cx="2.44865" cy="731.539" rx="2.44865" ry="2.44865" style="fill:#5b9bd5;fill-opacity:0.22;filter:url(#filter_2);stroke:#5b9bd5;stroke-opacity:0.22"/>
			</g>
			<ellipse cx="2.44865" cy="731.539" rx="2.44865" ry="2.44865" style="fill:#000000;stroke:#c7c8c8;stroke-width:0.25"/>
		</g>
		<g id="shape49-332" transform="translate(573.768,-624.959)">
			
			<path d="M9 733.99 L9 762.51" style="stroke:#000000;stroke-linecap:round;stroke-linejoin:round;stroke-width:1"/>
		</g>
		<g id="shape51-335" transform="translate(547.998,-620.256)">
			
			<desc>÷</desc>
			<path d="M4.99 733.99 L64.84 733.99 A4.74904 4.74904 -180 0 0 69.59 729.24 L69.59 700.99 A4.74904 4.74904 -180 0 0 64.84
						 696.24 L4.38 696.24 A4.37776 4.37776 -180 0 0 0 700.62 L0 728.99 A4.99264 4.99264 -180 0 0 4.99 733.99 Z"
					style="fill:#d5e8d4;stroke:#82b366;stroke-width:1.5"/>
			<text x="7" y="718.74" style="fill:#000000;font-family:Times New Roman;font-size:1.00001em;font-weight:bold">÷ </text>		</g>
		<g id="shape55-338" transform="translate(507.369,833.012) rotate(180)">
			
			<path d="M0 733.99 L60.87 733.99" style="stroke:#000000;stroke-linecap:round;stroke-linejoin:round;stroke-width:1"/>
		</g>
		<g id="shape56-341" transform="translate(507.689,854.662) rotate(180)">
			
			<path d="M0 733.99 L61.19 733.99" style="stroke:#000000;stroke-linecap:round;stroke-linejoin:round;stroke-width:1"/>
		</g>
		<g id="shape57-344" transform="translate(507.795,876.312) rotate(180)">
			
			<path d="M0 733.99 L61.3 733.99" style="stroke:#000000;stroke-linecap:round;stroke-linejoin:round;stroke-width:1"/>
		</g>
		<g id="shape58-347" transform="translate(507.582,790.529) rotate(180)">
			
			<path d="M0 733.99 L61.08 733.99" style="stroke:#000000;stroke-linecap:round;stroke-linejoin:round;stroke-width:1"/>
		</g>
		<g id="shape59-350" transform="translate(507.689,812.587) rotate(180)">
			
			<path d="M0 733.99 L61.19 733.99" style="stroke:#000000;stroke-linecap:round;stroke-linejoin:round;stroke-width:1"/>
		</g>
		<g id="group619-353" transform="translate(976.826,-45.0045)">
			
			<g id="shape593-354" transform="translate(3.67706E-13,2.37861)">
				
				<g id="shadow593-355" transform="matrix(1,0,0,1,0.345598,1.97279)" style="visibility:visible">
					<rect x="0" y="709.427" width="73.1724" height="24.5605" style="fill:#5b9bd5;fill-opacity:0.22;filter:url(#filter_2);stroke:#5b9bd5;stroke-opacity:0.22"/>
				</g>
				<rect x="0" y="709.427" width="73.1724" height="24.5605" style="fill:#f8cecc;stroke:#c7c8c8;stroke-width:0.25"/>
			</g>
			<g id="shape251-359" transform="translate(17.0254,-4.42532)">
				
				<desc>GCLK_IO[x]</desc>
				<rect x="0" y="723.035" width="56.1839" height="10.9527" style="fill:#f8cecc;stroke:none;stroke-width:0.25"/>
				<text x="9.35" y="730.91" style="fill:#000000;font-family:Calibri;font-size:0.666664em;font-weight:bold">GCLK_IO[x]</text>			</g>
			<g id="shape587-362" transform="translate(9.82832,-5.069)">
				
				<rect x="0" y="723.314" width="10.2662" height="10.6737" style="fill:#f8cecc;stroke:#000000;stroke-width:0.25"/>
			</g>
			<g id="shape588-364" transform="translate(-503.806,214.622) rotate(-45)">
				
				<path d="M0 726.79 L6.96 726.79 L6.96 733.99 L6.96 726.79 L13.92 726.79 L6.96 726.79 L6.96 719.6 L6.96 726.79 L0
							 726.79 Z" style="fill:#f8cecc;stroke:#000000;stroke-width:0.25"/>
			</g>
		</g>
		<g id="shape328-366" transform="translate(154.143,-647.243)">
			
			<desc>OSCHF Frequency</desc>
			<path d="M5.16 733.99 L106.14 733.99 A5.60985 5.60985 -180 0 0 111.75 728.38 L111.75 687.65 A4.93667 4.93667 -180 0 0
						 106.81 682.71 L5.83 682.71 A5.83424 5.83424 -180 0 0 -0 688.55 L0 728.83 A5.16106 5.16106 -180 0 0 5.16
						 733.99 Z" style="fill:#d5e8d4;stroke:#82b366;stroke-width:1"/>
			<text x="19.78" y="711.35" style="fill:#000000;font-family:Calibri;font-size:0.833336em">OSCHF Frequency</text>		</g>
		<g id="shape388-369" transform="translate(117.833,-244.505)">
			
			<desc>32K Crystal Oscillator</desc>
			<path d="M6.17 733.99 L100.98 733.99 A6.27803 6.27803 -180 0 0 107.26 727.71 L107.26 666.9 A6.59725 6.59725 -180 0 0
						 100.66 660.31 L7.13 660.31 A7.12928 7.12928 -180 0 0 0 667.44 L0 727.82 A6.17162 6.17162 -180 0 0 6.17 733.99
						 Z" style="fill:#d5e8d4;stroke:#82b366;stroke-width:1.5"/>
			<text x="10.59" y="700.15" style="fill:#000000;font-family:Calibri;font-size:0.833336em">32K Crystal Oscillator</text>		</g>
		<g id="shape460-372" transform="translate(174.67,-299.583)">
			
			<desc>32 KHz</desc>
			<rect x="0" y="724.362" width="36.6172" height="9.62506" style="fill:none;stroke:none;stroke-width:0.5"/>
			<text x="7.05" y="731.58" style="fill:#0066cc;font-family:Calibri;font-size:0.666664em;font-weight:bold">32 KHz</text>		</g>
		<g id="shape461-375" transform="translate(178.683,-250.272)">
			
			<desc>1 KHz</desc>
			<rect x="0" y="724.362" width="31.9774" height="9.62506" style="fill:none;stroke:none;stroke-width:0.5"/>
			<text x="6.76" y="731.58" style="fill:#0066cc;font-family:Calibri;font-size:0.666664em;font-weight:bold">1 KHz</text>		</g>
		<g id="shape407-378" transform="translate(117.833,-393.889)">
			
			<desc>32K High Accuracy Internal Oscillator</desc>
			<path d="M4.47 733.99 L104.39 733.99 A4.99441 4.99441 -180 0 0 109.38 728.99 L109.38 667.9 A5.63285 5.63285 -180 0 0
						 103.75 662.27 L4.79 662.27 A4.7912 4.7912 -180 0 0 -0 667.06 L0 729.52 A4.47198 4.47198 -180 0 0 4.47 733.99
						 Z" style="fill:#d5e8d4;stroke:#82b366;stroke-width:1.5"/>
			<text x="17.26" y="695.13" style="fill:#000000;font-family:Calibri;font-size:0.833336em">32K High Accuracy <tspan x="18.33" dy="1.2em" style="font-size:1em">Internal Oscillator</tspan></text>		</g>
		<g id="shape462-382" transform="translate(175.692,-449.074)">
			
			<desc>32 KHz</desc>
			<rect x="0" y="724.362" width="37.1215" height="9.62506" style="fill:none;stroke:none;stroke-width:0.5"/>
			<text x="7.3" y="731.58" style="fill:#0066cc;font-family:Calibri;font-size:0.666664em;font-weight:bold">32 KHz</text>		</g>
		<g id="shape463-385" transform="translate(180.289,-402.874)">
			
			<desc>1 KHz</desc>
			<rect x="0" y="724.362" width="33.5827" height="9.62506" style="fill:none;stroke:none;stroke-width:0.5"/>
			<text x="7.56" y="731.58" style="fill:#0066cc;font-family:Calibri;font-size:0.666664em;font-weight:bold">1 KHz</text>		</g>
		<g id="shape35-388" transform="translate(550.24,-148.065)">
			
			<desc>÷</desc>
			<path d="M4.8 733.99 L66.29 733.99 A5.21381 5.21381 -180 0 0 71.51 728.77 L71.51 701.03 A4.7926 4.7926 -180 0 0 66.71
						 696.24 L4.8 696.24 A4.796 4.796 -180 0 0 -0 701.03 L0 729.19 A4.796 4.796 -180 0 0 4.8 733.99 Z"
					style="fill:#d5e8d4;stroke:#82b366;stroke-width:1.5"/>
			<text x="7" y="718.76" style="fill:#000000;font-family:Times New Roman;font-size:1.00001em">÷ </text>		</g>
		<g id="shape673-391" transform="translate(1561.87,64.0968) rotate(90)">
			
			<path d="M0 733.99 L12.71 733.99" style="stroke:#000000;stroke-linecap:round;stroke-linejoin:round;stroke-width:1"/>
		</g>
		<g id="shape152-394" transform="translate(800.757,-669.941)">
			
			<desc>÷</desc>
			<path d="M4.22 733.99 L50.19 733.99 A4.00592 4.00592 -180 0 0 54.19 729.98 L54.19 700.24 A4.00592 4.00592 -180 0 0 50.19
						 696.24 L3.58 696.24 A3.58029 3.58029 -180 0 0 -0 699.82 L0 729.77 A4.21873 4.21873 -180 0 0 4.22 733.99
						 Z" style="fill:#d5e8d4;stroke:#82b366;stroke-width:1.5"/>
			<text x="13" y="718.76" style="fill:#000000;font-family:Times New Roman;font-size:1.00001em">÷ </text>		</g>
		<g id="shape263-397" transform="translate(549.275,-390.074)">
			
			<desc>÷</desc>
			<path d="M5.28 733.99 L65.81 733.99 A5.06182 5.06182 -180 0 0 70.87 728.93 L70.87 701.72 A5.47927 5.47927 -180 0 0 65.39
						 696.24 L5.28 696.24 A5.27605 5.27605 -180 0 0 0 701.51 L0 728.71 A5.27605 5.27605 -180 0 0 5.28 733.99 Z"
					style="fill:#d5e8d4;stroke:#82b366;stroke-width:1.5"/>
			<text x="7" y="718.76" style="fill:#000000;font-family:Times New Roman;font-size:1.00001em">÷ </text>		</g>
		<g id="shape678-400" transform="translate(202.518,-631.306)">
			
			<path d="M9 732.3 L9 717.68" style="stroke:#000000;stroke-linecap:round;stroke-linejoin:round;stroke-width:1"/>
		</g>
		<g id="shape712-403" transform="translate(510.905,1303.07) rotate(180)">
			
			<path d="M0 733.99 L60.87 733.99" style="stroke:#000000;stroke-linecap:round;stroke-linejoin:round;stroke-width:1"/>
		</g>
		<g id="shape713-406" transform="translate(511.224,1324.72) rotate(180)">
			
			<path d="M0 733.99 L61.19 733.99" style="stroke:#000000;stroke-linecap:round;stroke-linejoin:round;stroke-width:1"/>
		</g>
		<g id="shape714-409" transform="translate(511.331,1346.37) rotate(180)">
			
			<path d="M0 733.99 L61.3 733.99" style="stroke:#000000;stroke-linecap:round;stroke-linejoin:round;stroke-width:1"/>
		</g>
		<g id="shape715-412" transform="translate(511.118,1260.59) rotate(180)">
			
			<path d="M0 733.99 L61.08 733.99" style="stroke:#000000;stroke-linecap:round;stroke-linejoin:round;stroke-width:1"/>
		</g>
		<g id="shape716-415" transform="translate(511.224,1282.65) rotate(180)">
			
			<path d="M0 733.99 L61.19 733.99" style="stroke:#000000;stroke-linecap:round;stroke-linejoin:round;stroke-width:1"/>
		</g>
		<g id="shape723-418" transform="translate(533.268,-401.243)">
			
			<path d="M1.12 724.99 L10.72 724.99" style="marker-end:url(#mrkr5-58);stroke:#000000;stroke-linecap:round;stroke-linejoin:round;stroke-width:1"/>
		</g>
		<g id="shape724-423" transform="translate(507.763,1062.32) rotate(180)">
			
			<path d="M0 733.99 L60.87 733.99" style="stroke:#000000;stroke-linecap:round;stroke-linejoin:round;stroke-width:1"/>
		</g>
		<g id="shape725-426" transform="translate(508.082,1083.97) rotate(180)">
			
			<path d="M0 733.99 L61.19 733.99" style="stroke:#000000;stroke-linecap:round;stroke-linejoin:round;stroke-width:1"/>
		</g>
		<g id="shape727-429" transform="translate(508.743,1019.93) rotate(180)">
			
			<path d="M0 733.99 L61.08 733.99" style="stroke:#000000;stroke-linecap:round;stroke-linejoin:round;stroke-width:1"/>
		</g>
		<g id="shape728-432" transform="translate(508.082,1041.9) rotate(180)">
			
			<path d="M0 733.99 L61.19 733.99" style="stroke:#000000;stroke-linecap:round;stroke-linejoin:round;stroke-width:1"/>
		</g>
		<g id="shape108-435" transform="translate(1506.2,181.994) rotate(90)">
			
			<path d="M0 733.99 L128.25 733.99 L106.88 705.87 L21.38 705.87 L0 733.99 Z" style="fill:#dae8fc;stroke:#6c8ebf;stroke-width:1"/>
		</g>
		<g id="shape722-437" transform="translate(1242.55,264.119) rotate(90)">
			
			<path d="M0 733.99 L110.25 733.99 L91.88 707.44 L18.38 707.44 L0 733.99 Z" style="fill:#dae8fc;stroke:#6c8ebf;stroke-width:1"/>
		</g>
		<g id="shape46-439" transform="translate(1240.9,21.1191) rotate(90)">
			
			<path d="M0 733.99 L158.63 733.99 L132.19 709.37 L26.44 709.37 L0 733.99 Z" style="fill:#dae8fc;stroke:#6c8ebf;stroke-width:1"/>
		</g>
		<g id="shape493-441" transform="translate(1569.88,419.369) rotate(90)">
			
			<path d="M0 733.99 L158.62 733.99 L132.19 704.74 L26.44 704.74 L0 733.99 Z" style="fill:#dae8fc;stroke:#6c8ebf;stroke-width:1"/>
		</g>
		<g id="shape34-443" transform="translate(530.863,-157.016)">
			
			<path d="M0 725.09 L14.25 724.95" style="marker-end:url(#mrkr5-58);stroke:#000000;stroke-linecap:round;stroke-linejoin:round;stroke-width:1"/>
		</g>
		<g id="shape30-448" transform="translate(1245.7,504.869) rotate(90)">
			
			<path d="M0 733.99 L132.75 733.99 L110.63 707.44 L22.13 707.44 L0 733.99 Z" style="fill:#dae8fc;stroke:#6c8ebf;stroke-width:1"/>
		</g>
		<g id="shape397-450" transform="translate(982.418,371.401) rotate(90)">
			
			<path d="M0 733.99 L80.65 733.99 L67.21 713.26 L13.44 713.26 L0 733.99 Z" style="fill:#dae8fc;stroke:#6c8ebf;stroke-width:1"/>
		</g>
		<g id="shape745-452" transform="translate(336.843,-236.993)">
			
			<desc>1,024 Hz</desc>
			<rect x="0" y="723.035" width="43.3861" height="10.9527" style="fill:none;stroke:none;stroke-width:0.25"/>
			<text x="7.53" y="730.91" style="fill:#000000;font-family:Calibri;font-size:0.666664em;font-weight:bold">1,024 Hz</text>		</g>
		<g id="shape746-455" transform="translate(337.65,-388.567)">
			
			<desc>1,024 Hz</desc>
			<rect x="0" y="723.035" width="43.3861" height="10.9527" style="fill:none;stroke:none;stroke-width:0.25"/>
			<text x="7.53" y="730.91" style="fill:#000000;font-family:Calibri;font-size:0.666664em;font-weight:bold">1,024 Hz</text>		</g>
		<g id="shape50-458" transform="translate(531.315,-629.614)">
			
			<path d="M0.2 725.04 L11.64 724.97" style="marker-end:url(#mrkr5-58);stroke:#000000;stroke-linecap:round;stroke-linejoin:round;stroke-width:1"/>
		</g>
		<g id="shape517-463" transform="translate(800.826,779.159) rotate(180)">
			
			<path d="M5.8 733.99 L6.16 733.99 L116.41 733.99" style="marker-start:url(#mrkr5-308);stroke:#000000;stroke-linecap:round;stroke-linejoin:round;stroke-width:1"/>
		</g>
	</g>
</svg>
